<?xml version="1.0" standalone="no"?>
<!DOCTYPE svg PUBLIC "-//W3C//DTD SVG 20010904//EN"
 "http://www.w3.org/TR/2001/REC-SVG-20010904/DTD/svg10.dtd">
<svg version="1.0" xmlns="http://www.w3.org/2000/svg"
 width="400.000000pt" height="400.000000pt" viewBox="0 0 400.000000 400.000000"
 preserveAspectRatio="xMidYMid meet">
<metadata>
Created by potrace 1.11, written by Peter Selinger 2001-2013
</metadata>
<g transform="translate(0.000000,400.000000) scale(0.100000,-0.100000)"
fill="#000000" stroke="none">
<path d="M345 3778 c-64 -55 -65 -68 -65 -645 -1 -750 -11 -873 -75 -873 -22
0 -29 -5 -65 -47 -28 -33 3 -113 45 -113 12 0 30 -9 40 -20 10 -11 31 -20 46
-20 15 0 31 -5 34 -10 4 -6 15 -8 26 -5 16 5 1920 9 2621 6 l167 -1 3 -52 c2
-43 6 -53 21 -52 12 1 17 -5 17 -22 0 -20 5 -24 28 -24 15 0 38 7 50 16 25 17
25 15 13 -39 -5 -20 -5 -39 -1 -42 11 -7 19 20 25 75 2 23 11 50 19 59 9 10
16 34 16 54 0 23 5 37 13 37 10 0 12 115 13 553 0 303 3 613 8 688 l8 136 41
9 c31 7 42 14 41 27 -1 9 4 17 11 17 9 0 12 11 11 33 -2 17 -4 42 -5 55 0 12
-9 25 -18 29 -10 3 -38 15 -63 27 -45 21 -49 21 -1000 23 -525 1 -1137 4
-1360 6 -388 4 -408 5 -472 27 -46 16 -68 28 -71 42 -3 11 -10 17 -16 13 -7
-4 -11 7 -11 29 0 32 -2 35 -31 34 -20 -1 -44 -12 -64 -30z"/>
<path d="M360 1982 c0 -4 12 -25 27 -47 32 -47 44 -30 13 20 -20 32 -40 46
-40 27z"/>
<path d="M467 1819 c10 -17 24 -35 31 -41 21 -18 14 16 -9 46 -28 36 -44 33
-22 -5z"/>
<path d="M3228 1765 c-12 -21 -19 -85 -9 -85 6 0 13 16 17 34 6 36 2 67 -8 51z"/>
<path d="M540 1713 c0 -5 14 -24 30 -43 33 -40 41 -23 9 21 -19 27 -39 38 -39
22z"/>
<path d="M3196 1612 c-12 -19 -19 -95 -8 -88 5 3 13 24 17 47 7 39 3 59 -9 41z"/>
<path d="M630 1582 c0 -4 13 -23 30 -42 33 -40 41 -23 9 21 -19 28 -39 38 -39
21z"/>
<path d="M1420 1469 c-48 -48 -53 -82 -60 -389 -5 -240 -9 -293 -25 -338 -17
-49 -21 -53 -57 -58 -25 -4 -37 -11 -34 -19 2 -6 -4 -18 -15 -26 -38 -27 -12
-109 35 -109 12 0 33 -11 46 -25 l23 -25 724 0 723 0 0 -32 c0 -56 11 -80 31
-75 15 4 19 -1 19 -24 0 -27 2 -28 33 -22 48 9 103 66 111 116 4 23 11 44 16
47 5 3 11 131 14 285 6 321 9 351 40 358 11 2 29 8 39 12 15 6 16 4 7 -20 -12
-32 -13 -78 -1 -71 14 9 22 85 11 106 -8 16 -8 20 3 20 14 0 37 67 37 106 0
13 -3 14 -15 4 -10 -9 -15 -9 -15 -1 0 6 -10 11 -22 11 -12 0 -29 7 -38 15
-33 30 -125 35 -654 36 -292 0 -580 4 -641 8 -125 8 -205 33 -205 65 0 12 -5
16 -15 12 -12 -4 -15 2 -15 28 0 32 -2 34 -35 34 -26 0 -43 -8 -65 -29z"/>
<path d="M720 1455 c0 -10 45 -75 53 -75 13 0 7 21 -14 51 -18 26 -39 38 -39
24z"/>
<path d="M3152 1418 c-6 -24 -7 -47 -3 -51 5 -5 13 12 20 37 13 54 13 56 2 56
-5 0 -13 -19 -19 -42z"/>
<path d="M810 1325 c0 -10 45 -75 53 -75 13 0 7 21 -14 51 -18 26 -39 38 -39
24z"/>
<path d="M900 1195 c0 -10 45 -75 53 -75 13 0 7 20 -15 50 -19 27 -38 39 -38
25z"/>
<path d="M990 1063 c0 -11 44 -73 53 -73 11 0 8 10 -14 46 -19 31 -39 45 -39
27z"/>
<path d="M3052 948 c-6 -24 -7 -47 -3 -51 5 -5 12 6 16 25 3 18 9 41 11 51 3
9 1 17 -4 17 -5 0 -14 -19 -20 -42z"/>
<path d="M1080 932 c0 -4 12 -25 27 -47 32 -47 44 -30 13 20 -20 32 -40 46
-40 27z"/>
<path d="M3027 823 c-12 -19 -19 -83 -9 -83 6 0 13 18 17 41 7 39 3 59 -8 42z"/>
<path d="M1170 802 c0 -4 12 -25 27 -47 32 -47 44 -30 13 20 -20 32 -40 46
-40 27z"/>
</g>
</svg>
